<svg width="50" height="50" viewBox="0 0 50 50" fill="none" xmlns="http://www.w3.org/2000/svg">
<circle cx="25" cy="25" r="25" fill="#EDEDED"/>
<path d="M15.1517 12.0139C15.2588 12.0134 15.2588 12.0134 15.3681 12.0129C15.447 12.013 15.5259 12.0132 15.6048 12.0134C15.6889 12.0132 15.773 12.0129 15.857 12.0126C16.088 12.012 16.3189 12.012 16.5498 12.0121C16.799 12.0121 17.0481 12.0115 17.2972 12.011C17.7852 12.0101 18.2732 12.0098 18.7613 12.0098C19.158 12.0097 19.5547 12.0095 19.9514 12.0091C21.0763 12.0082 22.2011 12.0077 23.3259 12.0078C23.4169 12.0078 23.4169 12.0078 23.5097 12.0078C23.5704 12.0078 23.6311 12.0078 23.6937 12.0078C24.6776 12.0078 25.6615 12.0068 26.6454 12.0053C27.6557 12.0037 28.6661 12.003 29.6764 12.0031C30.2436 12.0031 30.8108 12.0028 31.378 12.0016C31.8609 12.0006 32.3439 12.0004 32.8268 12.0011C33.0732 12.0015 33.3195 12.0015 33.5658 12.0006C33.7915 11.9997 34.0172 11.9999 34.2429 12.0008C34.3244 12.001 34.4058 12.0008 34.4873 12.0002C35.1496 11.9956 35.6987 12.1006 36.1882 12.5706C36.6902 13.1604 36.7031 13.8081 36.698 14.5452C36.6979 14.6399 36.698 14.7347 36.6981 14.8294C36.6981 15.0851 36.6972 15.3409 36.696 15.5966C36.695 15.8644 36.6949 16.1322 36.6947 16.3999C36.6942 16.9064 36.6928 17.4129 36.6912 17.9193C36.6894 18.4962 36.6885 19.073 36.6876 19.6499C36.6859 20.8359 36.6831 22.022 36.6794 23.208C36.7432 23.2195 36.7432 23.2195 36.8083 23.2313C37.23 23.322 37.5887 23.6777 37.8255 24.0221C37.9672 24.2872 38.0484 24.5257 38.0575 24.826C38.0682 24.9749 38.0727 25.0308 38.1869 25.1306C38.263 25.1746 38.3403 25.2168 38.4184 25.2572C38.6993 25.4196 38.868 25.6756 38.9716 25.9759C38.9857 26.1225 38.9857 26.1225 38.9862 26.2837C38.9867 26.3451 38.9872 26.4065 38.9876 26.4698C38.9876 26.5366 38.9875 26.6035 38.9875 26.6724C38.988 26.7786 38.988 26.7786 38.9886 26.8869C38.9896 27.0808 38.9898 27.2747 38.9899 27.4686C38.99 27.5899 38.9902 27.7111 38.9905 27.8324C38.9915 28.2559 38.9919 28.6793 38.9919 29.1028C38.9918 29.4969 38.9929 29.891 38.9947 30.2851C38.9961 30.6239 38.9967 30.9628 38.9966 31.3017C38.9966 31.5038 38.9969 31.706 38.998 31.9081C38.9993 32.1338 38.9988 32.3594 38.9981 32.5851C38.9988 32.6516 38.9994 32.7181 39 32.7867C38.9968 33.2217 38.9424 33.5178 38.6499 33.8566C38.3032 34.1452 38.0755 34.2795 37.6072 34.2795C37.6072 35.175 37.6072 36.0705 37.6072 36.9932C37.9134 36.9932 38.2196 36.9932 38.535 36.9932C38.8693 37.1261 38.8693 37.1261 38.9716 37.2645C38.9953 37.3796 38.9953 37.3796 38.9955 37.5054C38.9966 37.5467 38.9976 37.588 38.9987 37.6306C38.9598 37.8063 38.8975 37.8613 38.7533 37.9701C38.5945 37.9913 38.4563 37.9992 38.2975 37.9974C38.2509 37.9977 38.2042 37.998 38.1562 37.9983C37.9989 37.9991 37.8416 37.9984 37.6843 37.9976C37.5708 37.9979 37.4573 37.9982 37.3438 37.9987C37.0311 37.9996 36.7184 37.9991 36.4057 37.9984C36.0688 37.9979 35.7319 37.9987 35.3949 37.9993C34.7728 38.0002 34.1507 38.0001 33.5285 37.9995C32.9538 37.999 32.3791 37.9988 31.8044 37.9991C31.7663 37.9991 31.7283 37.9991 31.689 37.9992C31.5344 37.9992 31.3798 37.9993 31.2252 37.9994C29.7743 38 28.3233 37.9994 26.8724 37.9983C25.5827 37.9972 24.293 37.9973 23.0033 37.9984C21.555 37.9995 20.1068 38 18.6585 37.9993C18.5042 37.9992 18.3499 37.9992 18.1956 37.9991C18.1576 37.9991 18.1196 37.9991 18.0804 37.9991C17.506 37.9988 16.9316 37.9991 16.3572 37.9996C15.7042 38.0003 15.0513 38.0001 14.3983 37.9989C14.0649 37.9984 13.7315 37.9981 13.3981 37.9989C13.0932 37.9995 12.7884 37.9992 12.4835 37.998C12.3729 37.9978 12.2623 37.9979 12.1517 37.9984C12.0019 37.9991 11.8523 37.9984 11.7025 37.9974C11.6373 37.9981 11.6373 37.9981 11.5707 37.9989C11.3763 37.9963 11.2678 37.9861 11.1109 37.8673C10.99 37.6998 10.9978 37.58 11.0071 37.3798C11.0284 37.2645 11.0284 37.2645 11.1239 37.1288C11.5012 36.8787 11.9466 36.9932 12.3928 36.9932C12.3928 36.0977 12.3928 35.2022 12.3928 34.2795C12.2307 34.2616 12.0686 34.2437 11.9016 34.2253C11.5466 34.0873 11.2411 33.7936 11.0797 33.4513C11.0239 33.2897 11.0144 33.1653 11.0138 32.9948C11.0133 32.9334 11.0128 32.872 11.0124 32.8087C11.0124 32.7419 11.0125 32.675 11.0125 32.6061C11.0122 32.5353 11.0118 32.4645 11.0114 32.3916C11.0104 32.1977 11.0102 32.0038 11.0101 31.8099C11.01 31.6887 11.0098 31.5674 11.0095 31.4461C11.0085 31.0226 11.0081 30.5992 11.0081 30.1757C11.0082 29.7816 11.0071 29.3875 11.0053 28.9935C11.0039 28.6546 11.0033 28.3157 11.0034 27.9768C11.0034 27.7747 11.0031 27.5725 11.002 27.3704C11.0007 27.1447 11.0012 26.9191 11.0019 26.6934C11.0012 26.6269 11.0006 26.5604 11 26.4919C11.0032 26.0563 11.0555 25.7548 11.3558 25.42C11.3919 25.3908 11.4279 25.3615 11.465 25.3314C11.501 25.3013 11.537 25.2712 11.5741 25.2402C11.6833 25.1618 11.6833 25.1618 11.8031 25.1173C11.9182 25.0586 11.9182 25.0586 11.9353 24.9074C11.9423 24.8184 11.9423 24.8184 11.9494 24.7276C12.022 24.1675 12.2794 23.8164 12.7104 23.4592C12.9097 23.3112 13.0693 23.208 13.3206 23.208C13.3204 23.1591 13.3202 23.1102 13.32 23.0598C13.3152 21.8679 13.3115 20.6761 13.3093 19.4843C13.3082 18.9079 13.3066 18.3315 13.3041 17.7551C13.3019 17.2526 13.3005 16.75 13.3001 16.2475C13.2998 15.9815 13.2991 15.7156 13.2975 15.4497C13.296 15.199 13.2956 14.9483 13.2959 14.6976C13.2958 14.606 13.2954 14.5143 13.2946 14.4227C13.2886 13.7374 13.3459 13.1143 13.8086 12.5691C14.1821 12.2132 14.6352 12.0146 15.1517 12.0139ZM14.4155 13.4152C14.3067 13.6635 14.2962 13.8738 14.2964 14.1451C14.2964 14.1834 14.2963 14.2217 14.2963 14.2612C14.2962 14.3895 14.2965 14.5178 14.2968 14.6462C14.2968 14.7382 14.2968 14.8302 14.2968 14.9222C14.2967 15.172 14.2971 15.4218 14.2974 15.6716C14.2978 15.9326 14.2978 16.1937 14.2979 16.4547C14.298 16.9491 14.2985 17.4435 14.299 17.9378C14.2997 18.5006 14.3 19.0634 14.3002 19.6262C14.3008 20.784 14.3018 21.9417 14.303 23.0994C14.6632 23.0994 15.0234 23.0994 15.3945 23.0994C15.3679 23.0116 15.3413 22.9237 15.3139 22.8331C15.2029 22.3892 15.2081 21.9532 15.211 21.4995C15.211 21.4091 15.211 21.3187 15.2109 21.2283C15.2109 21.0401 15.2114 20.8519 15.2124 20.6636C15.2137 20.4235 15.2137 20.1834 15.2133 19.9432C15.2131 19.757 15.2135 19.5708 15.214 19.3846C15.2143 19.2961 15.2143 19.2076 15.2142 19.1191C15.2141 18.3954 15.2403 17.7568 15.7584 17.1933C16.1383 16.8502 16.5477 16.6893 17.0595 16.6877C17.1192 16.6874 17.179 16.6871 17.2405 16.6868C17.3381 16.6867 17.3381 16.6867 17.4375 16.6866C17.5064 16.6863 17.5753 16.686 17.6463 16.6858C17.835 16.685 18.0237 16.6847 18.2123 16.6845C18.3304 16.6843 18.4485 16.6841 18.5665 16.6838C18.9366 16.6831 19.3066 16.6826 19.6766 16.6824C20.1027 16.6821 20.5287 16.6812 20.9547 16.6796C21.2847 16.6784 21.6147 16.6779 21.9448 16.6778C22.1415 16.6777 22.3383 16.6774 22.535 16.6764C22.7549 16.6754 22.9747 16.6756 23.1945 16.676C23.259 16.6755 23.3235 16.675 23.3899 16.6745C23.8531 16.6768 24.3311 16.7129 24.693 17.0311C24.8582 17.1748 24.8721 17.1838 25.1092 17.1838C25.2161 17.112 25.3081 17.0302 25.4046 16.9453C25.8347 16.6798 26.3089 16.6717 26.8011 16.6742C26.8701 16.674 26.939 16.6737 27.01 16.6734C27.1976 16.6726 27.3851 16.6729 27.5726 16.6734C27.7698 16.6739 27.967 16.6735 28.1642 16.6732C28.4953 16.6729 28.8263 16.6733 29.1573 16.6741C29.5389 16.675 29.9203 16.6747 30.3019 16.6738C30.6307 16.6731 30.9596 16.673 31.2885 16.6734C31.4843 16.6736 31.6801 16.6737 31.876 16.6731C32.0945 16.6726 32.313 16.6733 32.5315 16.6742C32.5955 16.6739 32.6595 16.6736 32.7255 16.6733C33.3069 16.6777 33.7931 16.7751 34.2235 17.1838C34.6415 17.6475 34.7753 18.1065 34.7771 18.7264C34.7774 18.7848 34.7774 18.7848 34.7777 18.8444C34.7782 18.9725 34.7783 19.1005 34.7784 19.2285C34.7786 19.3181 34.7787 19.4078 34.7789 19.4974C34.7793 19.685 34.7794 19.8727 34.7793 20.0603C34.7793 20.2997 34.7801 20.5391 34.781 20.7785C34.7816 20.9636 34.7817 21.1487 34.7817 21.3338C34.7818 21.422 34.782 21.5102 34.7824 21.5984C34.7844 22.0393 34.7825 22.4546 34.6601 22.8824C34.6421 22.954 34.624 23.0256 34.6055 23.0994C34.9657 23.0994 35.3259 23.0994 35.697 23.0994C35.7008 21.8889 35.7037 20.6784 35.7055 19.4678C35.7064 18.9057 35.7075 18.3436 35.7094 17.7815C35.711 17.2916 35.7121 16.8017 35.7124 16.3117C35.7126 16.0523 35.7131 15.7929 35.7143 15.5336C35.7155 15.2893 35.7158 15.0451 35.7155 14.8008C35.7156 14.7113 35.7159 14.6217 35.7165 14.5322C35.7174 14.4097 35.7172 14.2872 35.7167 14.1647C35.7169 14.0962 35.717 14.0277 35.7172 13.9571C35.6795 13.5972 35.5401 13.3508 35.2604 13.1133C35.0735 12.9958 34.9219 12.9911 34.7028 12.9907C34.6327 12.9903 34.5625 12.9899 34.4903 12.9895C34.4123 12.9896 34.3343 12.9898 34.2563 12.9899C34.1736 12.9897 34.0909 12.9894 34.0082 12.9891C33.7805 12.9883 33.5528 12.9882 33.3252 12.9882C33.0798 12.9881 32.8344 12.9874 32.589 12.9868C32.0523 12.9856 31.5155 12.9851 30.9788 12.9849C30.6437 12.9847 30.3086 12.9843 29.9735 12.9839C29.046 12.9829 28.1184 12.982 27.1908 12.9818C27.1018 12.9818 27.1018 12.9818 27.0109 12.9818C26.8905 12.9818 26.7702 12.9818 26.6498 12.9817C26.5602 12.9817 26.5602 12.9817 26.4687 12.9817C26.379 12.9817 26.379 12.9817 26.2874 12.9817C25.3179 12.9815 24.3484 12.98 23.3789 12.978C22.3837 12.9759 21.3886 12.9749 20.3934 12.9749C19.8346 12.9748 19.2757 12.9744 18.7169 12.9728C18.2411 12.9715 17.7652 12.9711 17.2894 12.9719C17.0466 12.9723 16.8038 12.9722 16.561 12.971C16.3387 12.9699 16.1164 12.97 15.894 12.9711C15.8137 12.9713 15.7333 12.9711 15.653 12.9703C15.1391 12.9657 14.7413 12.9867 14.4155 13.4152ZM16.3598 17.9639C16.1804 18.2415 16.1448 18.4956 16.1436 18.8217C16.1433 18.8592 16.143 18.8968 16.1427 18.9355C16.142 19.0587 16.142 19.182 16.1422 19.3053C16.142 19.3915 16.1417 19.4777 16.1415 19.564C16.141 19.7444 16.1411 19.9248 16.1414 20.1052C16.1417 20.3358 16.1407 20.5663 16.1395 20.7968C16.1387 20.9748 16.1386 21.1528 16.1388 21.3308C16.1388 21.4158 16.1385 21.5008 16.1379 21.5857C16.1373 21.7048 16.1376 21.8239 16.1383 21.943C16.1382 22.0106 16.1382 22.0782 16.1382 22.1478C16.1764 22.5073 16.3159 22.7538 16.5952 22.9909C16.77 23.0977 16.903 23.1132 17.1069 23.114C17.1664 23.1144 17.226 23.1149 17.2873 23.1154C17.3523 23.1153 17.4174 23.1153 17.4844 23.1152C17.5531 23.1156 17.6218 23.1159 17.6926 23.1163C17.8809 23.1173 18.0692 23.1175 18.2575 23.1176C18.3752 23.1177 18.493 23.1179 18.6107 23.1182C19.0216 23.1192 19.4324 23.1196 19.8433 23.1196C20.226 23.1195 20.6086 23.1206 20.9913 23.1224C21.3201 23.1238 21.6489 23.1244 21.9778 23.1243C22.174 23.1243 22.3703 23.1246 22.5666 23.1257C22.7855 23.127 23.0045 23.1265 23.2235 23.1258C23.2883 23.1264 23.3531 23.127 23.4199 23.1277C23.7624 23.1251 23.9786 23.1167 24.2359 22.8824C24.4645 22.5813 24.5156 22.3798 24.5176 22.0069C24.5179 21.9677 24.5181 21.9285 24.5184 21.8881C24.5192 21.7584 24.5196 21.6288 24.5199 21.4991C24.5202 21.4088 24.5205 21.3186 24.5208 21.2283C24.5214 21.039 24.5217 20.8497 24.5219 20.6604C24.5222 20.4183 24.5235 20.1761 24.5251 19.9339C24.5261 19.7475 24.5264 19.561 24.5265 19.3745C24.5266 19.2853 24.5271 19.196 24.5278 19.1068C24.5287 18.9817 24.5286 18.8566 24.5283 18.7315C24.5285 18.6604 24.5287 18.5893 24.5289 18.5161C24.4979 18.2185 24.3867 18.0063 24.1541 17.8181C24.122 17.7914 24.0899 17.7648 24.0568 17.7373C23.8816 17.6157 23.7258 17.6109 23.5191 17.61C23.4321 17.6094 23.4321 17.6094 23.3433 17.6088C23.2479 17.6086 23.2479 17.6086 23.1505 17.6083C23.0835 17.608 23.0165 17.6076 22.9474 17.6073C22.7251 17.6062 22.5028 17.6056 22.2805 17.605C22.2039 17.6048 22.1273 17.6046 22.0507 17.6043C21.6907 17.6033 21.3308 17.6025 20.9708 17.6021C20.5557 17.6016 20.1406 17.6001 19.7254 17.5979C19.4043 17.5963 19.0832 17.5955 18.7621 17.5953C18.5704 17.5952 18.3788 17.5947 18.1871 17.5933C17.9731 17.5918 17.7591 17.5921 17.5451 17.5924C17.4819 17.5917 17.4188 17.591 17.3537 17.5903C16.9236 17.5931 16.6682 17.649 16.3598 17.9639ZM25.6924 17.9707C25.6522 18.0186 25.6522 18.0186 25.6112 18.0674C25.4683 18.2711 25.4834 18.4684 25.4815 18.7087C25.4812 18.7478 25.4808 18.7868 25.4804 18.827C25.4794 18.9562 25.4787 19.0853 25.4782 19.2145C25.478 19.2587 25.4777 19.303 25.4775 19.3485C25.4764 19.5827 25.4756 19.8168 25.4751 20.051C25.4745 20.2922 25.4726 20.5333 25.4704 20.7745C25.469 20.9605 25.4685 21.1466 25.4684 21.3326C25.4681 21.4214 25.4675 21.5103 25.4664 21.5992C25.4515 22.2464 25.4515 22.2464 25.7095 22.8281C25.9345 23.0358 26.0687 23.1061 26.3714 23.1074C26.4307 23.1078 26.49 23.1082 26.5511 23.1086C26.6165 23.1088 26.6818 23.1089 26.7492 23.1091C26.8521 23.1096 26.8521 23.1096 26.957 23.1101C27.185 23.1113 27.4129 23.1118 27.6408 23.1124C27.7193 23.1126 27.7978 23.1128 27.8762 23.1131C28.2451 23.1141 28.6139 23.1149 28.9827 23.1153C29.4082 23.1158 29.8337 23.1173 30.2592 23.1195C30.5882 23.1211 30.9172 23.1219 31.2462 23.1221C31.4426 23.1222 31.6391 23.1227 31.8355 23.1241C32.0549 23.1256 32.2742 23.1253 32.4936 23.125C32.5584 23.1256 32.6232 23.1263 32.6899 23.1271C33.0496 23.1248 33.2784 23.1005 33.5685 22.8824C33.8157 22.5719 33.8481 22.3514 33.8502 21.9632C33.8505 21.9257 33.8508 21.8883 33.851 21.8497C33.8518 21.7261 33.8522 21.6025 33.8525 21.4789C33.8528 21.3927 33.8531 21.3064 33.8534 21.2201C33.854 21.0393 33.8543 20.8584 33.8545 20.6776C33.8548 20.4467 33.8561 20.2158 33.8577 19.9849C33.8587 19.8067 33.859 19.6284 33.8591 19.4502C33.8592 19.3651 33.8597 19.28 33.8604 19.195C33.8828 18.4969 33.8828 18.4969 33.5839 17.8861C33.5518 17.8614 33.5197 17.8367 33.4867 17.8113C33.4546 17.7856 33.4225 17.7599 33.3895 17.7335C33.2119 17.6175 33.0575 17.611 32.8513 17.6103C32.7932 17.61 32.7352 17.6097 32.6753 17.6094C32.6116 17.6093 32.5479 17.6093 32.4823 17.6092C32.4152 17.6089 32.3481 17.6087 32.2789 17.6084C32.0948 17.6077 31.9106 17.6073 31.7265 17.6071C31.6114 17.6069 31.4963 17.6067 31.3812 17.6065C31.021 17.6057 30.6607 17.6052 30.3005 17.605C29.8849 17.6047 29.4693 17.6038 29.0537 17.6022C28.7324 17.601 28.411 17.6005 28.0896 17.6004C27.8977 17.6004 27.7058 17.6 27.5139 17.5991C27.2998 17.598 27.0857 17.5982 26.8715 17.5986C26.8082 17.5981 26.7448 17.5976 26.6795 17.5971C26.2697 17.5992 25.9646 17.638 25.6924 17.9707ZM13.2029 24.3248C13.1787 24.3548 13.1545 24.3847 13.1296 24.4156C13.1042 24.4449 13.0789 24.4743 13.0528 24.5046C12.9666 24.6546 12.9666 24.6546 12.9386 24.999C20.8991 24.999 28.8597 24.999 37.0614 24.999C37.0299 24.6583 37.0299 24.6583 36.8704 24.4156C36.8462 24.3856 36.822 24.3557 36.7971 24.3248C36.3543 24.0025 35.8039 24.0534 35.283 24.0557C35.1906 24.0555 35.0982 24.0552 35.0058 24.0549C34.7528 24.0542 34.4997 24.0546 34.2466 24.0551C33.9734 24.0554 33.7002 24.0549 33.427 24.0544C32.892 24.0537 32.3571 24.0538 31.8221 24.0543C31.3874 24.0547 30.9526 24.0547 30.5178 24.0546C30.4559 24.0545 30.394 24.0545 30.3302 24.0545C30.2045 24.0544 30.0788 24.0544 29.953 24.0543C28.7741 24.0539 27.5952 24.0544 26.4163 24.0553C25.4049 24.056 24.3935 24.0559 23.3821 24.0551C22.2074 24.0543 21.0327 24.0539 19.858 24.0544C19.7327 24.0545 19.6075 24.0545 19.4822 24.0546C19.4206 24.0546 19.3589 24.0546 19.2954 24.0546C18.8612 24.0548 18.427 24.0545 17.9927 24.0542C17.4635 24.0537 16.9343 24.0538 16.4051 24.0547C16.1351 24.0551 15.8651 24.0553 15.5951 24.0547C15.3479 24.0543 15.1007 24.0545 14.8534 24.0554C14.7641 24.0556 14.6747 24.0555 14.5854 24.0551C13.8569 24.0401 13.8569 24.0401 13.2029 24.3248ZM12.0108 26.193C12.0108 27.7869 12.0108 29.3809 12.0108 31.0232C20.5837 31.0232 29.1566 31.0232 37.9892 31.0232C37.9892 29.4292 37.9892 27.8352 37.9892 26.193C37.7612 25.9639 37.7612 25.9639 37.468 25.947C37.4277 25.9475 37.3874 25.948 37.3458 25.9486C37.2808 25.9481 37.2808 25.9481 37.2145 25.9476C37.0685 25.9468 36.9225 25.9476 36.7765 25.9483C36.6711 25.9481 36.5657 25.9477 36.4603 25.9473C36.17 25.9464 35.8797 25.9468 35.5894 25.9475C35.2766 25.948 34.9638 25.9472 34.651 25.9466C34.0379 25.9457 33.4249 25.9459 32.8118 25.9465C32.3137 25.947 31.8156 25.9471 31.3175 25.9468C31.2113 25.9468 31.2113 25.9468 31.103 25.9467C30.9592 25.9467 30.8154 25.9466 30.6716 25.9465C29.3605 25.9459 28.0494 25.9465 26.7384 25.9477C25.541 25.9487 24.3436 25.9486 23.1462 25.9476C21.8016 25.9464 20.457 25.946 19.1123 25.9466C18.969 25.9467 18.8258 25.9468 18.6825 25.9468C18.612 25.9469 18.5415 25.9469 18.4688 25.9469C17.9711 25.9471 17.4734 25.9468 16.9757 25.9463C16.3695 25.9457 15.7633 25.9458 15.157 25.947C14.8475 25.9476 14.538 25.9478 14.2285 25.9471C13.9454 25.9464 13.6624 25.9468 13.3793 25.9479C13.2766 25.9482 13.174 25.9481 13.0713 25.9475C12.9322 25.9469 12.7933 25.9475 12.6542 25.9486C12.6139 25.9481 12.5735 25.9475 12.532 25.947C12.2493 25.9512 12.2282 25.9767 12.0108 26.193ZM12.0108 32.0001C12.0108 32.3583 12.0108 32.7165 12.0108 33.0856C12.2882 33.3063 12.3863 33.3341 12.7136 33.33C12.7784 33.3304 12.7784 33.3304 12.8445 33.3309C12.9897 33.3317 13.1349 33.331 13.2801 33.3302C13.3851 33.3305 13.49 33.3308 13.595 33.3312C13.8838 33.3321 14.1726 33.3317 14.4615 33.331C14.7728 33.3305 15.0841 33.3313 15.3954 33.3319C16.0055 33.3328 16.6155 33.3326 17.2256 33.332C17.7212 33.3315 18.2169 33.3315 18.7126 33.3317C18.783 33.3317 18.8535 33.3318 18.9261 33.3318C19.0693 33.3319 19.2124 33.3319 19.3556 33.332C20.6604 33.3326 21.9653 33.332 23.2701 33.3308C24.4617 33.3298 25.6532 33.3299 26.8447 33.3309C28.183 33.3321 29.5213 33.3326 30.8595 33.3319C31.0022 33.3318 31.1448 33.3318 31.2874 33.3317C31.3576 33.3317 31.4278 33.3316 31.5001 33.3316C31.9953 33.3314 32.4906 33.3317 32.9858 33.3322C33.5891 33.3328 34.1924 33.3327 34.7957 33.3315C35.1037 33.3309 35.4117 33.3307 35.7196 33.3314C36.0013 33.3321 36.283 33.3317 36.5647 33.3306C36.6669 33.3303 36.769 33.3305 36.8711 33.331C37.0096 33.3316 37.1479 33.331 37.2864 33.33C37.3464 33.3307 37.3464 33.3307 37.4076 33.3315C37.7016 33.3272 37.7371 33.2862 37.9892 33.0856C37.9892 32.7274 37.9892 32.3692 37.9892 32.0001C29.4163 32.0001 20.8434 32.0001 12.0108 32.0001ZM13.3752 34.2795C13.3752 35.175 13.3752 36.0705 13.3752 36.9932C13.9695 36.9932 14.5639 36.9932 15.1762 36.9932C15.1762 36.0977 15.1762 35.2022 15.1762 34.2795C14.5819 34.2795 13.9875 34.2795 13.3752 34.2795ZM16.1586 34.2795C16.1586 35.175 16.1586 36.0705 16.1586 36.9932C21.9939 36.9932 27.8293 36.9932 33.8414 36.9932C33.8414 36.0977 33.8414 35.2022 33.8414 34.2795C28.0061 34.2795 22.1707 34.2795 16.1586 34.2795ZM34.8238 34.2795C34.8238 35.175 34.8238 36.0705 34.8238 36.9932C35.4181 36.9932 36.0125 36.9932 36.6248 36.9932C36.6248 36.0977 36.6248 35.2022 36.6248 34.2795C36.0305 34.2795 35.4361 34.2795 34.8238 34.2795Z" fill="#3F409B"/>
</svg>
