<svg width="50" height="50" viewBox="0 0 50 50" fill="none" xmlns="http://www.w3.org/2000/svg">
<circle cx="25" cy="25" r="25" fill="#EDEDED"/>
<path d="M17.9452 13.0117C17.9975 13.0114 18.0498 13.0112 18.1036 13.011C18.2782 13.0104 18.4528 13.0104 18.6275 13.0105C18.7529 13.0102 18.8783 13.0099 19.0037 13.0095C19.3088 13.0087 19.6138 13.0085 19.9189 13.0084C20.167 13.0084 20.4152 13.0082 20.6633 13.0078C21.3678 13.007 22.0722 13.0065 22.7767 13.0066C22.8146 13.0066 22.8525 13.0066 22.8916 13.0066C22.9486 13.0066 22.9486 13.0066 23.0067 13.0066C23.6219 13.0067 24.2371 13.0057 24.8522 13.0044C25.4848 13.003 26.1174 13.0023 26.75 13.0024C27.1047 13.0024 27.4595 13.0021 27.8143 13.0011C28.1481 13.0001 28.4819 13.0001 28.8157 13.0008C28.938 13.0009 29.0602 13.0007 29.1824 13.0001C30.2478 12.9953 31.0774 13.1294 31.8685 13.9068C32.3832 14.4569 32.6446 15.1484 32.6414 15.8946C32.6414 15.9374 32.6414 15.9803 32.6414 16.0245C32.6414 16.1657 32.641 16.3069 32.6406 16.4481C32.6405 16.5462 32.6404 16.6443 32.6404 16.7424C32.6402 17.0002 32.6397 17.258 32.6392 17.5159C32.6386 17.8254 32.6384 18.135 32.6381 18.4445C32.6376 18.9144 32.6367 19.3844 32.6358 19.8544C31.9758 19.8544 31.3158 19.8544 30.6357 19.8544C30.6339 19.5584 30.6321 19.2625 30.6302 18.9576C30.6287 18.7699 30.6272 18.5823 30.6255 18.3947C30.6229 18.0969 30.6204 17.7992 30.6188 17.5015C30.6176 17.2614 30.6156 17.0213 30.6131 16.7812C30.6123 16.6897 30.6118 16.5982 30.6115 16.5067C30.611 16.3783 30.6096 16.25 30.608 16.1216C30.6081 16.0651 30.6081 16.0651 30.6082 16.0073C30.6031 15.7075 30.5203 15.5189 30.34 15.284C30.0124 15.0261 29.6099 15.0033 29.2065 15.0066C29.1342 15.0063 29.1342 15.0063 29.0606 15.006C28.9005 15.0055 28.7405 15.0061 28.5804 15.0066C28.4652 15.0065 28.3499 15.0063 28.2346 15.0061C27.9225 15.0057 27.6103 15.0061 27.2982 15.0068C27.0044 15.0073 26.7106 15.0071 26.4168 15.007C25.8347 15.0069 25.2526 15.0075 24.6704 15.0084C24.1062 15.0093 23.542 15.0097 22.9778 15.0094C22.3625 15.0091 21.7472 15.0091 21.1319 15.0097C21.0663 15.0097 21.0006 15.0098 20.935 15.0099C20.9027 15.0099 20.8704 15.0099 20.8371 15.0099C20.61 15.0101 20.3828 15.0101 20.1557 15.01C19.8499 15.0099 19.5441 15.0103 19.2382 15.0111C19.1261 15.0113 19.0139 15.0113 18.9017 15.0112C18.7485 15.0111 18.5953 15.0115 18.4421 15.0121C18.3978 15.0119 18.3535 15.0117 18.3079 15.0115C17.9207 15.0142 17.5759 15.0595 17.2691 15.3175C17.0422 15.6154 17.0192 15.9217 17.0188 16.285C17.0186 16.3337 17.0186 16.3337 17.0185 16.3834C17.0182 16.4921 17.0183 16.6009 17.0183 16.7096C17.0182 16.7884 17.0181 16.8672 17.0179 16.9459C17.0175 17.1624 17.0174 17.3788 17.0174 17.5952C17.0173 17.8287 17.0169 18.0621 17.0166 18.2956C17.0159 18.806 17.0156 19.3164 17.0154 19.8268C17.0153 20.1455 17.0151 20.4642 17.0149 20.783C17.0143 21.6655 17.0138 22.548 17.0136 23.4305C17.0136 23.4869 17.0136 23.5434 17.0136 23.6016C17.0136 23.6582 17.0135 23.7148 17.0135 23.7731C17.0135 23.8878 17.0135 24.0025 17.0135 24.1172C17.0135 24.2026 17.0135 24.2026 17.0134 24.2896C17.0132 25.2117 17.0124 26.1337 17.0113 27.0558C17.0101 28.0025 17.0095 28.9493 17.0094 29.896C17.0094 30.4275 17.0091 30.9591 17.0082 31.4906C17.0075 31.9432 17.0072 32.3957 17.0076 32.8483C17.0078 33.0792 17.0078 33.31 17.0071 33.5409C17.0065 33.7524 17.0065 33.9638 17.0071 34.1753C17.0072 34.2517 17.0071 34.328 17.0066 34.4044C17.0041 34.8871 17.028 35.3281 17.2691 35.7577C17.3577 35.8162 17.3577 35.8162 17.4642 35.8553C17.4965 35.872 17.5288 35.8887 17.5621 35.9059C17.7748 35.9743 17.9779 35.9666 18.2 35.9659C18.25 35.9661 18.3 35.9663 18.3515 35.9666C18.5191 35.9672 18.6868 35.9671 18.8544 35.967C18.9746 35.9673 19.0947 35.9676 19.2148 35.968C19.5073 35.9688 19.7999 35.9691 20.0924 35.9691C20.3302 35.9692 20.5681 35.9694 20.8059 35.9697C21.4803 35.9706 22.1547 35.971 22.8291 35.9709C22.8836 35.9709 22.8836 35.9709 22.9393 35.9709C22.9757 35.9709 23.012 35.9709 23.0495 35.9709C23.6394 35.9709 24.2292 35.9718 24.819 35.9732C25.4248 35.9746 26.0306 35.9753 26.6364 35.9752C26.9764 35.9751 27.3164 35.9754 27.6565 35.9765C27.9762 35.9774 28.296 35.9774 28.6158 35.9767C28.7331 35.9766 28.8505 35.9768 28.9679 35.9774C29.1281 35.9782 29.2883 35.9777 29.4485 35.977C29.5182 35.9777 29.5182 35.9777 29.5893 35.9785C29.9193 35.9751 30.1305 35.9079 30.3792 35.6798C30.5778 35.423 30.5947 35.2321 30.597 34.9169C30.5974 34.876 30.5979 34.835 30.5984 34.7929C30.6 34.6574 30.6012 34.522 30.6024 34.3866C30.6034 34.2928 30.6044 34.1989 30.6055 34.1051C30.6081 33.858 30.6106 33.6109 30.6129 33.3638C30.6158 33.0674 30.619 32.7709 30.6222 32.4745C30.627 32.0241 30.6313 31.5737 30.6357 31.1233C31.2958 31.1233 31.9558 31.1233 32.6358 31.1233C32.6437 32.1897 32.6437 32.1897 32.6454 32.6482C32.6465 32.9598 32.6479 33.2713 32.6506 33.5828C32.6527 33.8342 32.6539 34.0857 32.6544 34.3372C32.6547 34.4325 32.6554 34.5279 32.6565 34.6233C32.6669 35.5974 32.519 36.4236 31.8241 37.1644C31.187 37.7488 30.4794 38.0175 29.6204 38.0148C29.5689 38.015 29.5174 38.0152 29.4644 38.0155C29.2929 38.0161 29.1214 38.016 28.9498 38.0159C28.8265 38.0162 28.7031 38.0165 28.5798 38.0169C28.2799 38.0177 27.9801 38.018 27.6803 38.018C27.4363 38.0181 27.1924 38.0183 26.9484 38.0186C26.2556 38.0195 25.5627 38.0199 24.8698 38.0198C24.8139 38.0198 24.8139 38.0198 24.7568 38.0198C24.7008 38.0198 24.7008 38.0198 24.6436 38.0198C24.0389 38.0198 23.4342 38.0207 22.8295 38.0221C22.2074 38.0235 21.5853 38.0241 20.9632 38.0241C20.6144 38.024 20.2657 38.0243 19.9169 38.0254C19.5886 38.0263 19.2604 38.0263 18.9321 38.0256C18.8121 38.0255 18.692 38.0257 18.572 38.0263C17.4919 38.0313 16.638 37.9189 15.8178 37.1421C15.3284 36.6247 15.0133 35.967 15.0125 35.2497C15.0124 35.2153 15.0122 35.181 15.012 35.1456C15.0116 35.031 15.0118 34.9165 15.012 34.802C15.0118 34.7188 15.0116 34.6356 15.0114 34.5524C15.0108 34.3242 15.0108 34.0961 15.0109 33.8679C15.0109 33.6217 15.0104 33.3754 15.0099 33.1291C15.0091 32.6468 15.0088 32.1645 15.0088 31.6822C15.0087 31.2901 15.0085 30.898 15.0082 30.5059C15.0074 29.3938 15.0069 28.2817 15.007 27.1696C15.007 27.1097 15.007 27.0497 15.007 26.988C15.007 26.928 15.007 26.8679 15.007 26.8061C15.007 25.8337 15.0061 24.8613 15.0047 23.8889C15.0033 22.89 15.0027 21.8912 15.0027 20.8923C15.0028 20.3317 15.0025 19.7711 15.0015 19.2105C15.0006 18.7331 15.0004 18.2558 15.001 17.7784C15.0013 17.535 15.0014 17.2915 15.0005 17.0481C14.9997 16.825 14.9999 16.6019 15.0007 16.3787C15.0009 16.2983 15.0007 16.2179 15.0002 16.1374C14.9946 15.257 15.2211 14.5163 15.8378 13.8677C16.4319 13.2885 17.1206 13.0091 17.9452 13.0117Z" fill="#3F409B"/>
<path d="M35.3677 20.8788C35.5263 20.9485 35.6325 21.0335 35.7552 21.1553C35.7929 21.1925 35.8305 21.2297 35.8694 21.268C35.9103 21.3089 35.9511 21.3498 35.9933 21.3918C36.0584 21.4563 36.0584 21.4563 36.1248 21.5221C36.2436 21.64 36.3622 21.758 36.4806 21.8762C36.5546 21.95 36.6287 22.0238 36.7028 22.0975C36.9611 22.3546 37.2191 22.612 37.4769 22.8697C37.7174 23.11 37.9586 23.3497 38.2 23.5891C38.4072 23.7946 38.6139 24.0006 38.8203 24.2069C38.9436 24.3302 39.0671 24.4533 39.1911 24.5758C39.3292 24.7124 39.4662 24.8499 39.6032 24.9875C39.6446 25.0282 39.686 25.0688 39.7286 25.1107C39.7656 25.1482 39.8026 25.1857 39.8408 25.2243C39.8896 25.2729 39.8896 25.2729 39.9393 25.3226C40.0021 25.4156 40.0021 25.4156 39.9989 25.5129C39.9417 25.6357 39.8713 25.7108 39.7752 25.8065C39.737 25.8449 39.6987 25.8833 39.6593 25.923C39.6171 25.9647 39.5749 26.0064 39.5313 26.0494C39.4871 26.0937 39.4428 26.1379 39.3972 26.1836C39.2759 26.3049 39.1541 26.4258 39.0323 26.5467C38.905 26.673 38.7781 26.7998 38.6512 26.9266C38.4108 27.1665 38.1701 27.406 37.9292 27.6454C37.655 27.918 37.3812 28.191 37.1074 28.4641C36.5442 29.0257 35.9805 29.5868 35.4165 30.1476C35.3624 30.1016 35.3083 30.0556 35.2543 30.0095C35.2092 29.971 35.2092 29.971 35.1631 29.9318C35.039 29.8235 34.923 29.7083 34.8069 29.5916C34.7835 29.5681 34.7602 29.5447 34.7362 29.5206C34.663 29.4472 34.59 29.3736 34.517 29.3C34.4669 29.2496 34.4168 29.1992 34.3666 29.1489C34.2449 29.0266 34.1233 28.9042 34.0018 28.7817C34.4647 27.8559 35.4163 27.2696 36.1482 26.5376C32.0109 26.5215 27.8736 26.5054 23.6109 26.4889C23.6109 25.8288 23.6109 25.1688 23.6109 24.4887C29.7927 24.4646 29.7927 24.4646 36.0995 24.44C35.4072 23.7477 34.715 23.0555 34.0018 22.3423C34.1035 22.1387 34.2267 22.0073 34.3863 21.8506C34.4143 21.8228 34.4423 21.7949 34.4712 21.7662C34.5605 21.6775 34.65 21.5891 34.7396 21.5008C34.8003 21.4406 34.861 21.3804 34.9216 21.3201C35.07 21.1727 35.2188 21.0257 35.3677 20.8788Z" fill="#3F409B"/>
</svg>
