<svg viewBox="0 0 30 30" fill="none" xmlns="http://www.w3.org/2000/svg">
<path d="M23.4858 0.00331902C24.1689 -0.0252089 24.8354 0.131179 25.4437 0.433416C25.4827 0.452741 25.5217 0.472066 25.5618 0.491977C26.1486 0.802302 26.6208 1.25867 27.0873 1.72322C27.1435 1.77897 27.1998 1.83472 27.2577 1.89217C27.3759 2.00953 27.4939 2.12703 27.6117 2.24474C27.7611 2.39392 27.9113 2.54222 28.0617 2.69031C28.2073 2.83392 28.3519 2.97845 28.4967 3.12286C28.5499 3.17511 28.6031 3.22736 28.658 3.28119C29.1026 3.72851 29.4658 4.22324 29.7032 4.81117C29.7267 4.86778 29.7502 4.9244 29.7745 4.98272C30.152 6.10932 30.0469 7.33147 29.5241 8.39191C29.3619 8.66944 29.1849 8.902 28.9656 9.13691C28.9208 9.18501 28.9208 9.18501 28.8751 9.23409C28.5491 9.58205 28.2137 9.92077 27.877 10.2583C27.8074 10.3282 27.7379 10.3981 27.6684 10.468C27.4795 10.658 27.2905 10.8477 27.1014 11.0374C26.9387 11.2007 26.7761 11.3641 26.6135 11.5274C25.0727 13.0758 23.5293 14.6216 21.9855 16.167C21.7849 16.3678 21.5844 16.5685 21.3838 16.7693C21.334 16.8192 21.2842 16.8691 21.2328 16.9205C20.4247 17.7296 19.6178 18.5399 18.8113 19.3507C17.9818 20.1845 17.1511 21.0172 16.3193 21.8488C15.8528 22.3152 15.387 22.782 14.9224 23.2503C14.5271 23.6487 14.1307 24.0461 13.733 24.4422C13.5303 24.644 13.3282 24.8464 13.1274 25.0501C12.9431 25.237 12.7575 25.4224 12.5706 25.6067C12.5037 25.6732 12.4373 25.7402 12.3716 25.8079C11.9101 26.2813 11.4594 26.5319 10.8345 26.7248C10.6337 26.7874 10.4358 26.8582 10.2373 26.9275C10.1559 26.9551 10.0744 26.9826 9.99284 27.0099C9.95128 27.0238 9.90971 27.0378 9.86689 27.0521C9.80239 27.0737 9.80239 27.0737 9.7366 27.0957C9.64355 27.127 9.55052 27.1584 9.45748 27.1897C9.15655 27.2909 8.85549 27.3918 8.55441 27.4926C8.44991 27.5276 8.3454 27.5626 8.24089 27.5976C7.80634 27.7431 7.37175 27.8886 6.93707 28.0337C6.31758 28.2406 5.69831 28.4481 5.07933 28.6565C4.64173 28.8038 4.2039 28.9503 3.76589 29.0963C3.50515 29.1833 3.24452 29.2705 2.98415 29.3585C2.73969 29.4412 2.49495 29.5229 2.24997 29.6039C2.16052 29.6337 2.07117 29.6638 1.98194 29.6942C0.867314 30.0739 0.867315 30.0739 0.346518 29.8375C0.14906 29.6499 0.0743525 29.5124 0 29.2504C0.0240988 28.8012 0.166411 28.3989 0.310108 27.9751C0.335751 27.8982 0.361394 27.8213 0.387814 27.7421C0.457969 27.5319 0.528698 27.3218 0.599532 27.1118C0.674377 26.8896 0.748684 26.6671 0.82305 26.4447C0.964602 26.0216 1.10663 25.5987 1.24883 25.1758C1.4079 24.7028 1.56646 24.2295 1.72497 23.7562C1.91957 23.1752 2.11425 22.5942 2.30934 22.0133C2.32312 21.9722 2.33691 21.9312 2.3511 21.8889C2.41927 21.6859 2.48751 21.4829 2.55591 21.28C2.68606 20.8934 2.8151 20.5066 2.94142 20.1187C3.00303 19.9297 3.06505 19.7407 3.12708 19.5518C3.15657 19.4615 3.18587 19.3712 3.21494 19.2808C3.25533 19.1553 3.29643 19.0299 3.33766 18.9047C3.36084 18.8332 3.38401 18.7618 3.40789 18.6881C3.55059 18.3353 3.76768 18.07 4.03498 17.8027C4.07865 17.7587 4.07865 17.7587 4.1232 17.7139C4.22044 17.6162 4.31812 17.519 4.4158 17.4218C4.48648 17.3509 4.55712 17.2801 4.62775 17.2093C4.82161 17.0149 5.01587 16.821 5.21019 16.6271C5.41981 16.4178 5.62908 16.2081 5.83839 15.9985C6.24847 15.588 6.65889 15.1778 7.06945 14.7678C7.40324 14.4344 7.73694 14.1009 8.07057 13.7674C9.01679 12.8214 9.96327 11.8757 10.9101 10.9303C10.9611 10.8794 11.0122 10.8284 11.0647 10.7759C11.1158 10.7249 11.1669 10.6739 11.2196 10.6213C12.0474 9.7947 12.8747 8.96746 13.7016 8.13994C14.551 7.28996 15.4009 6.44044 16.2513 5.5914C16.7285 5.11485 17.2056 4.6381 17.6822 4.16085C18.0881 3.75446 18.4943 3.3485 18.9012 2.94309C19.1086 2.73636 19.3158 2.52943 19.5225 2.32195C19.712 2.13174 19.9021 1.94213 20.0926 1.75295C20.1612 1.68468 20.2295 1.61621 20.2977 1.54751C21.2107 0.627094 22.1926 0.108836 23.4858 0.00331902ZM21.0558 3.24824C21.1407 3.42505 21.2148 3.5568 21.3673 3.68369C21.4084 3.68369 21.4495 3.68369 21.4919 3.68369C21.4919 3.72474 21.4919 3.7658 21.4919 3.8081C21.5947 3.89232 21.6985 3.97523 21.8034 4.05692C21.8239 4.09798 21.8445 4.13903 21.8657 4.18133C21.9068 4.18133 21.9479 4.18133 21.9903 4.18133C21.9903 4.22239 21.9903 4.26345 21.9903 4.30575C22.0938 4.38904 22.1977 4.47192 22.3017 4.55457C22.3848 4.65825 22.4678 4.76192 22.5509 4.8656C22.6543 4.94914 22.758 5.03215 22.8624 5.11443C22.9035 5.17601 22.9446 5.23759 22.987 5.30104C23.0281 5.30104 23.0692 5.30104 23.1116 5.30104C23.1321 5.36263 23.1527 5.42421 23.1739 5.48766C23.215 5.48766 23.2561 5.48766 23.2985 5.48766C23.2985 5.52872 23.2985 5.56977 23.2985 5.61207C23.3396 5.61207 23.3807 5.61207 23.423 5.61207C23.423 5.65313 23.423 5.69419 23.423 5.73649C23.5684 5.90237 23.5684 5.90237 23.7345 6.04752C23.7756 6.04752 23.8167 6.04752 23.8591 6.04752C23.8797 6.1091 23.9002 6.17069 23.9214 6.23414C24.0242 6.31835 24.1281 6.40127 24.2329 6.48296C24.2946 6.57534 24.2946 6.57534 24.3575 6.66958C24.3986 6.66958 24.4397 6.66958 24.4821 6.66958C24.4821 6.71063 24.4821 6.75169 24.4821 6.79399C24.5232 6.79399 24.5643 6.79399 24.6067 6.79399C24.6067 6.83505 24.6067 6.8761 24.6067 6.9184C24.752 7.08429 24.752 7.08429 24.9181 7.22943C24.9592 7.22943 25.0004 7.22943 25.0427 7.22943C25.0633 7.29102 25.0838 7.3526 25.105 7.41605C25.2083 7.49967 25.3122 7.58253 25.4165 7.66488C25.4996 7.76855 25.5826 7.87223 25.6657 7.97591C25.7171 8.01696 25.7685 8.05802 25.8214 8.10032C25.9772 8.22473 25.9772 8.22473 26.1134 8.3958C26.1507 8.44199 26.1879 8.48817 26.2263 8.53576C26.2674 8.53576 26.3086 8.53576 26.3509 8.53576C26.3509 8.57682 26.3509 8.61787 26.3509 8.66017C26.4522 8.74616 26.556 8.82934 26.6624 8.909C26.9445 8.78129 27.1277 8.58939 27.3438 8.37247C27.3816 8.33566 27.4195 8.29886 27.4585 8.26094C27.9936 7.72716 28.2806 7.14972 28.3054 6.38576C28.2742 5.46933 27.7751 4.81775 27.1437 4.19567C27.0613 4.11318 27.0613 4.11318 26.9771 4.02903C26.8321 3.88439 26.6866 3.74035 26.5408 3.59652C26.4521 3.50865 26.3638 3.42037 26.2756 3.33191C26.1048 3.16053 25.9333 2.98984 25.7616 2.81936C25.7094 2.76713 25.6573 2.7149 25.6036 2.66108C25.0213 2.08884 24.4791 1.75328 23.6489 1.72808C22.5157 1.75191 21.8041 2.4788 21.0558 3.24824ZM19.6411 4.64551C19.598 4.6886 19.5549 4.73168 19.5105 4.77607C19.4607 4.82548 19.411 4.87488 19.3598 4.92578C19.3049 4.98097 19.25 5.03615 19.1934 5.09301C19.1353 5.15093 19.0772 5.20885 19.0173 5.26852C18.8554 5.42995 18.6939 5.59176 18.5324 5.75364C18.3584 5.92789 18.1841 6.10179 18.0098 6.27572C17.7077 6.57735 17.4058 6.8792 17.104 7.1812C16.6678 7.61786 16.2312 8.05417 15.7945 8.4904C15.086 9.19809 14.3779 9.90606 13.6699 10.6142C12.982 11.3023 12.294 11.9902 11.6058 12.6779C11.5634 12.7203 11.521 12.7627 11.4773 12.8063C11.2646 13.0188 11.052 13.2314 10.8393 13.4439C9.0739 15.208 7.30894 16.9727 5.54428 18.7376C5.74369 18.973 5.94297 19.2057 6.16166 19.4237C6.2062 19.4683 6.25075 19.5129 6.29664 19.5588C6.34423 19.6061 6.39182 19.6534 6.44084 19.7021C6.49194 19.7531 6.54303 19.8042 6.59567 19.8567C6.76338 20.0242 6.9313 20.1914 7.09923 20.3586C7.21603 20.4751 7.33282 20.5916 7.44959 20.7082C7.7248 20.9828 8.00016 21.2572 8.27558 21.5316C8.58936 21.8443 8.90297 22.1571 9.21657 22.4699C9.86114 23.1129 10.5059 23.7557 11.1509 24.3983C11.3566 24.3085 11.4923 24.1972 11.6506 24.039C11.7001 23.9898 11.7497 23.9406 11.8007 23.8899C11.8547 23.8356 11.9088 23.7812 11.9645 23.7252C12.0222 23.6677 12.0799 23.6102 12.1394 23.5509C12.2996 23.3912 12.4594 23.2311 12.6192 23.0709C12.7916 22.8983 12.9643 22.726 13.1369 22.5537C13.4361 22.255 13.735 21.9562 14.0337 21.6572C14.4657 21.2248 14.8979 20.7928 15.3303 20.3609C16.0318 19.6602 16.7329 18.9592 17.4339 18.258C18.1149 17.5769 18.7961 16.8958 19.4774 16.215C19.5404 16.152 19.5404 16.152 19.6046 16.0878C19.8153 15.8773 20.0259 15.6668 20.2365 15.4563C21.9844 13.7097 23.7317 11.9627 25.4788 10.2153C25.2795 9.98007 25.0803 9.74748 24.8623 9.52915C24.8179 9.48458 24.7735 9.44002 24.7278 9.3941C24.6804 9.34681 24.633 9.29951 24.5842 9.25078C24.5079 9.17424 24.5079 9.17424 24.43 9.09615C24.2629 8.92871 24.0956 8.7615 23.9282 8.59432C23.8117 8.4778 23.6952 8.36127 23.5788 8.24473C23.3353 8.00121 23.0917 7.75784 22.848 7.51454C22.5661 7.23309 22.2845 6.95129 22.0031 6.66933C21.7321 6.39773 21.4606 6.12647 21.1891 5.85534C21.0736 5.73999 20.9583 5.62453 20.8431 5.50897C20.6826 5.34813 20.5217 5.18768 20.3608 5.02733C20.3129 4.97915 20.265 4.93097 20.2156 4.88134C20.172 4.838 20.1283 4.79466 20.0833 4.75001C20.0264 4.69306 20.0264 4.69306 19.9682 4.63496C19.8276 4.51725 19.7791 4.52767 19.6411 4.64551ZM4.67215 20.4171C4.14842 21.932 3.63474 23.4504 3.12478 24.97C3.03472 25.2383 2.94451 25.5066 2.85392 25.7748C2.76725 26.0314 2.68104 26.2881 2.59516 26.545C2.56291 26.6412 2.53049 26.7374 2.4979 26.8335C2.45306 26.9659 2.4088 27.0985 2.36468 27.2311C2.33951 27.306 2.31433 27.3809 2.2884 27.4581C2.22327 27.6285 2.22327 27.6285 2.30493 27.7574C4.71015 26.9569 7.11537 26.1563 9.59348 25.3314C9.30643 24.9935 9.30643 24.9935 9.0049 24.6736C8.96674 24.6353 8.92858 24.597 8.88926 24.5576C8.84876 24.5172 8.80826 24.4769 8.76653 24.4354C8.72283 24.3916 8.67913 24.3479 8.6341 24.3028C8.49097 24.1596 8.34762 24.0167 8.20425 23.8737C8.10436 23.7739 8.00448 23.6741 7.90461 23.5743C7.69605 23.366 7.48738 23.1577 7.27862 22.9496C7.0104 22.6821 6.74247 22.4143 6.47461 22.1465C6.26882 21.9408 6.06289 21.7352 5.8569 21.5297C5.75798 21.4309 5.65909 21.3321 5.56026 21.2333C5.42276 21.0958 5.28507 20.9586 5.14732 20.8214C5.10619 20.7802 5.06506 20.739 5.02268 20.6965C4.87092 20.5076 4.87092 20.5076 4.67215 20.4171Z" />
</svg>
